<svg version="1.2" xmlns="http://www.w3.org/2000/svg" viewBox="0 0 190 188" width="200" height="198">
	<defs>
		<linearGradient id="g1" x2="1" gradientUnits="userSpaceOnUse" gradientTransform="matrix(0,100.672,-101.564,0,172.229,62.867)">
			<stop offset="0" stop-color="#aed13d"/>
			<stop offset=".542" stop-color="#0db04b"/>
			<stop offset="1" stop-color="#006838"/>
		</linearGradient>
		<linearGradient id="g2" x2="1" gradientUnits="userSpaceOnUse" gradientTransform="matrix(0,111.579,-111.579,0,172.753,59.114)">
			<stop offset="0" stop-color="#aed13d"/>
			<stop offset=".542" stop-color="#0db04b"/>
			<stop offset="1" stop-color="#006838"/>
		</linearGradient>
		<linearGradient id="g3" x2="1" gradientUnits="userSpaceOnUse" gradientTransform="matrix(35.398,-53.096,77.859,51.906,99.997,124.135)">
			<stop offset="0" stop-color="#aed13d"/>
			<stop offset=".542" stop-color="#0db04b"/>
			<stop offset="1" stop-color="#006838"/>
		</linearGradient>
		<linearGradient id="g4" x2="1" gradientUnits="userSpaceOnUse" gradientTransform="matrix(36.475,-54.713,68.778,45.852,52.896,121.54)">
			<stop offset="0" stop-color="#aed13d"/>
			<stop offset=".542" stop-color="#0db04b"/>
			<stop offset="1" stop-color="#006838"/>
		</linearGradient>
		<linearGradient id="g5" x2="1" gradientUnits="userSpaceOnUse" gradientTransform="matrix(28.734,-39.145,32.062,23.535,44.941,81.78)">
			<stop offset="0" stop-color="#aed13d"/>
			<stop offset=".542" stop-color="#0db04b"/>
			<stop offset="1" stop-color="#006838"/>
		</linearGradient>
	</defs>
	<style>
		.s0 { fill: #00572d } 
		.s1 { fill: url(#g1) } 
		.s2 { fill: url(#g2) } 
		.s3 { fill: url(#g3) } 
		.s4 { fill: url(#g4) } 
		.s5 { fill: url(#g5) } 
	</style>
	<g id="Layer 4">
		<g id="&lt;Group&gt;">
			<g id="&lt;Group&gt;">
				<path id="&lt;Compound Path&gt;" fill-rule="evenodd" class="s0" d="m173.25 52.91v43.21c0 46.76-34.69 77.34-77.34 77.34h-44.23v-58.26c0-40.17 22.12-62.29 62.29-62.29zm-17.52 43.21v-22.86h-41.77c-28.02 0-41.38 12.78-41.92 40.2 10.03-8.88 23.78-13.37 40.98-13.37h21.61c1.11 6.17-0.15 15.17-4.67 20.34h-16.94c-24.54 0-36.89 11.31-38.71 35.52 0 0 21.59 0 21.6 0 32.38 0 59.82-25.62 59.82-59.83z"/>
				<path id="&lt;Path&gt;" class="s0" d="m95.42 18.75c-42.64 0-77.34 34.69-77.34 77.33v77.34h17.52v-77.34c0-32.98 26.83-59.82 59.82-59.82h77.33v-17.51z"/>
				<path id="&lt;Compound Path&gt;" fill-rule="evenodd" class="s1" d="m116.48 57.93h56.77v40.7c0 43.36-31.47 74.83-74.83 74.83h-41.72v-55.75c0-38.55 21.23-59.78 59.78-59.78zm44.28 15.33h-44.28c-29.34 0-43.88 13.95-44.44 42.66l-0.11 5.72 4.29-3.79c9.54-8.46 22.77-12.74 39.31-12.74h19.41c0.38 4.95-0.7 11.25-3.67 15.32h-15.74c-25.82 0-39.3 12.38-41.21 37.84l-0.2 2.7h24.3c34.96 0 62.34-27.38 62.34-62.34z"/>
				<path id="&lt;Path&gt;" class="s2" d="m92.91 18.75c-41.26 0-74.83 33.56-74.83 74.82v79.85h12.49v-79.85c0-34.37 27.97-62.33 62.34-62.33h79.84v-12.49z"/>
				<g id="&lt;Group&gt;" style="mix-blend-mode: lighten">
					<path id="&lt;Path&gt;" class="s3" d="m116.84 119.23q-2.67-0.96-5.32-1.97c-4.13-1.58-9.53-4.04-16.05-7.31q-0.65-0.33-1.3-0.66c6.32-1.98 13.49-2.98 21.36-2.98h18.27c0.11 3.88-0.65 9.14-3.16 12.92z"/>
				</g>
				<g id="&lt;Group&gt;" style="mix-blend-mode: lighten">
					<path id="&lt;Path&gt;" class="s4" d="m165.8 129.81q-0.84-0.04-1.68-0.09c-2.84-0.17-5.73-0.46-8.22-0.72l-1.35-0.17c4.85-9.17 7.41-19.57 7.41-30.2v-26.57h-45.48c-23.05 0-37.06 8.33-42.78 25.45-3.42-2.15-7.07-4.52-11.11-7.2 8.12-20.4 26.73-31.18 53.89-31.18h55.57v39.5c0 11.12-2.09 21.61-6.21 31.18z"/>
				</g>
				<g id="&lt;Group&gt;" style="mix-blend-mode: lighten">
					<path id="&lt;Path&gt;" class="s5" d="m32.01 67.88c-1.81-1.48-3.73-3.09-5.99-5.02 12.03-26.1 38.19-42.91 66.89-42.91h78.64v10.09h-78.64c-25.67 0-49.1 15.82-58.82 39.53q-1.03-0.84-2.08-1.69z"/>
				</g>
			</g>
		</g>
	</g>
</svg>